<svg id="bombs" xmlns="http://www.w3.org/2000/svg" width="108.476" height="94.861" viewBox="0 0 108.476 94.861">
  <g id="Path_1962" data-name="Path 1962" transform="translate(-410.306 -196.61)" fill="none">
    <path d="M495.762,204.462c-27.243,22.338-32.166,20.133-37.6-7.852-5.448,27.985-10.37,30.19-33.807,13.91,16.308,23.409,14.105,28.332-14.051,33.715,28.156,5.493,30.36,10.416,14.081,33.658,23.407-16.113,28.33-13.908,33.676,13.579,5.533-27.486,10.456-29.692,38.1-7.579-20.52-29.241-18.316-34.164,22.615-39.948C477.85,238.851,475.647,233.928,495.762,204.462Z" stroke="none"/>
    <path d="M 458.1666870117188 205.9345703125 C 457.0705261230469 210.2559204101562 455.9772644042969 213.3798217773438 454.7483825683594 215.7902526855469 C 452.3711547851562 220.4532165527344 449.2074279785156 222.7199401855469 445.0764770507812 222.7199401855469 C 441.6224975585938 222.7199401855469 437.4762878417969 221.1838684082031 431.337646484375 217.483642578125 C 435.7958374023438 224.8491821289062 437.69580078125 230.3790588378906 435.8883361816406 234.8179321289062 C 434.697509765625 237.7424011230469 432.0278015136719 239.9660491943359 427.4866333007812 241.8159027099609 C 425.4077758789062 242.6627197265625 422.8856506347656 243.4560852050781 419.7051086425781 244.2520904541016 C 422.8998718261719 245.0633850097656 425.4311828613281 245.8691864013672 427.5157775878906 246.7268371582031 C 432.0573120117188 248.5953369140625 434.7232971191406 250.830322265625 435.9057006835938 253.7604522705078 C 437.693359375 258.1903076171875 435.7985229492188 263.681396484375 431.3599853515625 270.9807739257812 C 437.4978637695312 267.3135375976562 441.6427917480469 265.7911987304688 445.0953369140625 265.7911376953125 C 449.2085571289062 265.7910766601562 452.355712890625 268.0236206054688 454.716552734375 272.6162719726562 C 455.93603515625 274.9885864257812 457.0175476074219 278.0597534179688 458.09765625 282.3047485351562 C 459.0946960449219 278.5420532226562 460.0856018066406 275.7781372070312 461.1856689453125 273.6172485351562 C 463.4859008789062 269.0987243652344 466.5319213867188 266.90185546875 470.4998779296875 266.9010620117188 C 474.629638671875 266.9010620117188 479.718994140625 269.2102661132812 487.8307800292969 275.010986328125 C 486.0189819335938 272.084228515625 484.6925354003906 269.6557006835938 483.7035827636719 267.4856567382812 C 481.3077697753906 262.228515625 480.8550415039062 258.2510681152344 482.2789001464844 254.9684143066406 C 483.8079223632812 251.4432983398438 487.4876098632812 248.8495330810547 493.8591003417969 246.8056488037109 C 496.8790893554688 245.8368835449219 500.5648498535156 244.9507751464844 505.3832702636719 244.0555877685547 C 492.1554565429688 241.8159942626953 484.7022705078125 238.9970855712891 482.2456359863281 233.5547943115234 C 480.7755737304688 230.2981567382812 481.1763916015625 226.318115234375 483.5069580078125 221.0293273925781 C 484.4714660644531 218.8406372070312 485.7730407714844 216.3857727050781 487.5578308105469 213.4208984375 C 479.5734252929688 219.2682189941406 474.5527038574219 221.595703125 470.4637451171875 221.595703125 C 466.513916015625 221.595703125 463.4877014160156 219.3604736328125 461.2122192382812 214.7622985839844 C 460.1244201660156 212.5641784667969 459.1470947265625 209.7558898925781 458.1666870117188 205.9345703125 M 458.1642456054688 196.6099853515625 C 461.15185546875 212.0030212402344 463.9847412109375 219.595703125 470.4637451171875 219.595703125 C 475.7637023925781 219.595703125 483.5037231445312 214.5131225585938 495.7617797851562 204.4621276855469 C 475.6469116210938 233.9284057617188 477.8502197265625 238.8513793945312 518.7816772460938 243.9439086914062 C 477.8502197265625 249.7282867431641 475.6469116210938 254.6512756347656 496.1665649414062 283.8922729492188 C 483.7061157226562 273.9264526367188 475.8631591796875 268.8999938964844 470.4981689453125 268.9010620117188 C 463.9590454101562 268.90234375 461.10205078125 276.3724975585938 458.0625610351562 291.47119140625 C 454.8985900878906 275.2031860351562 451.8829040527344 267.7910461425781 445.0953674316406 267.7911376953125 C 440.4147033691406 267.791259765625 433.9403076171875 271.316162109375 424.3870239257812 277.8925170898438 C 440.6654663085938 254.6512756347656 438.4622192382812 249.7282867431641 410.305908203125 244.2349853515625 C 438.4622192382812 238.8513793945312 440.6654663085938 233.9284057617188 424.3571166992188 210.5196533203125 C 433.9097290039062 217.1554565429688 440.3861389160156 220.7199401855469 445.0764770507812 220.7199401855469 C 451.8935546875 220.7199401855469 454.9371032714844 213.1884155273438 458.1642456054688 196.6099853515625 Z" stroke="none" fill="#ff3107"/>
  </g>
  <text id="_8" data-name="8" transform="translate(49.739 58.861)" fill="#fff" font-size="33" font-family="Rubik-Medium, Rubik" font-weight="500"><tspan x="-10.824" y="0">8</tspan></text>
</svg>
