<svg id="city" xmlns="http://www.w3.org/2000/svg" width="80" height="80" viewBox="0 0 80 80">
  <g id="Group_1249" data-name="Group 1249" transform="translate(-895 -218)">
    <g id="Path_1973" data-name="Path 1973" transform="translate(895 218)" fill="none">
      <path d="M40,0A40,40,0,1,1,0,40,40,40,0,0,1,40,0Z" stroke="none"/>
      <path d="M 40 2 C 34.8691520690918 2 29.89284515380859 3.004432678222656 25.20929336547852 4.98541259765625 C 20.68452835083008 6.899223327636719 16.62044525146484 9.639450073242188 13.12994384765625 13.12994384765625 C 9.639450073242188 16.62044525146484 6.899223327636719 20.68452835083008 4.98541259765625 25.20929336547852 C 3.004432678222656 29.89284515380859 2 34.8691520690918 2 40 C 2 45.1308479309082 3.004432678222656 50.10715484619141 4.98541259765625 54.79070663452148 C 6.899223327636719 59.31546783447266 9.639450073242188 63.37955474853516 13.12994384765625 66.87005615234375 C 16.62044525146484 70.36054992675781 20.68452835083008 73.10077667236328 25.20929336547852 75.01458740234375 C 29.89284515380859 76.99556732177734 34.8691520690918 78 40 78 C 45.1308479309082 78 50.10715484619141 76.99556732177734 54.79070663452148 75.01458740234375 C 59.31546783447266 73.10077667236328 63.37955474853516 70.36054992675781 66.87005615234375 66.87005615234375 C 70.36054992675781 63.37955474853516 73.10077667236328 59.31546783447266 75.01458740234375 54.79070663452148 C 76.99556732177734 50.10715484619141 78 45.1308479309082 78 40 C 78 34.8691520690918 76.99556732177734 29.89284515380859 75.01458740234375 25.20929336547852 C 73.10077667236328 20.68452835083008 70.36054992675781 16.62044525146484 66.87005615234375 13.12994384765625 C 63.37955474853516 9.639450073242188 59.31546783447266 6.899223327636719 54.79070663452148 4.98541259765625 C 50.10715484619141 3.004432678222656 45.1308479309082 2 40 2 M 40 0 C 62.09138870239258 0 80 17.90861129760742 80 40 C 80 62.09138870239258 62.09138870239258 80 40 80 C 17.90861129760742 80 0 62.09138870239258 0 40 C 0 17.90861129760742 17.90861129760742 0 40 0 Z" stroke="none" fill="#ff3107"/>
    </g>
    <text id="_1" data-name="1" transform="translate(935 270)" fill="#fff" font-size="33" font-family="Rubik-Medium, Rubik" font-weight="500"><tspan x="-7.64" y="0">1</tspan></text>
  </g>
  <path id="Path_1963" data-name="Path 1963" d="M2880.378,311.5l20.236-6.691h34.246" transform="translate(-2864.605 -242)" fill="none" stroke="#ff3107" stroke-linecap="round" stroke-width="2"/>
  <path id="Path_1964" data-name="Path 1964" d="M2917.951,304.809l4.751-23.847,13.937-14.571" transform="translate(-2861 -242)" fill="none" stroke="#ff3107" stroke-linecap="round" stroke-width="2"/>
  <path id="Path_1965" data-name="Path 1965" d="M2927.3,276.223l-20.748-16.484,3.969-15.1" transform="translate(-2861 -242)" fill="none" stroke="#ff3107" stroke-linecap="round" stroke-width="2"/>
</svg>
